<?xml version="1.0" encoding="UTF-8" standalone="no"?>
<svg
   width="128"
   height="128"
   version="1.1"
   id="svg6"
   sodipodi:docname="icon.svg"
   inkscape:export-filename="icon_green.svg"
   inkscape:export-xdpi="96"
   inkscape:export-ydpi="96"
   xmlns:inkscape="http://www.inkscape.org/namespaces/inkscape"
   xmlns:sodipodi="http://sodipodi.sourceforge.net/DTD/sodipodi-0.dtd"
   xmlns="http://www.w3.org/2000/svg"
   xmlns:svg="http://www.w3.org/2000/svg">
  <defs
     id="defs6" />
  <sodipodi:namedview
     id="namedview6"
     pagecolor="#ffffff"
     bordercolor="#000000"
     borderopacity="0.25"
     inkscape:showpageshadow="2"
     inkscape:pageopacity="0.0"
     inkscape:pagecheckerboard="0"
     inkscape:deskcolor="#d1d1d1"
     showgrid="false">
    <inkscape:page
       x="0"
       y="0"
       width="128"
       height="128"
       id="page2"
       margin="0"
       bleed="0" />
  </sodipodi:namedview>
  <rect
     width="124"
     height="124"
     x="2"
     y="2"
     fill="#363d52"
     stroke="#212532"
     stroke-width="4"
     rx="14"
     id="rect1" />
  <g
     fill="#ffffff"
     transform="matrix(0.101,0,0,0.101,12.322,12.322)"
     id="g4">
    <path
       d="m 105,673 v 33 q 407,354 814,0 v -33 z"
       id="path1" />
    <path
       fill="#478cbf"
       d="m 105,673 152,14 q 12,1 15,14 l 4,67 132,10 8,-61 q 2,-11 15,-15 h 162 q 13,4 15,15 l 8,61 132,-10 4,-67 q 3,-13 15,-14 L 919,673 V 427 q 30,-39 56,-81 -35,-59 -83,-108 -43,20 -82,47 -40,-37 -88,-64 7,-51 8,-102 -59,-28 -123,-42 -26,43 -46,89 -49,-7 -98,0 -20,-46 -46,-89 -64,14 -123,42 1,51 8,102 -48,27 -88,64 -39,-27 -82,-47 -48,49 -83,108 26,42 56,81 z m 0,33 v 39 c 0,276 813,276 814,0 v -39 l -134,12 -5,69 q -2,10 -14,13 l -162,11 q -12,0 -16,-11 L 578,735 H 446 l -10,65 q -4,11 -16,11 L 258,800 q -12,-3 -14,-13 l -5,-69 z"
       id="path2" />
    <path
       d="m 483,600 c 0,34 58,34 58,0 v -86 c 0,-34 -58,-34 -58,0 z"
       id="path3" />
    <circle
       cx="725"
       cy="526"
       r="90"
       id="circle3" />
    <circle
       cx="299"
       cy="526"
       r="90"
       id="circle4" />
  </g>
  <g
     fill="#414042"
     transform="matrix(0.101,0,0,0.101,12.322,12.322)"
     id="g6">
    <circle
       cx="307"
       cy="532"
       r="60"
       id="circle5" />
    <circle
       cx="717"
       cy="532"
       r="60"
       id="circle6" />
  </g>
  <path
     style="fill:#ff0000;stroke-width:0.223155"
     d="M 45.748718,90.221232 C 42.804079,89.982172 40.377493,89.769009 40.356304,89.74754 40.335118,89.72607 40.213281,88.101786 40.085558,86.138018 39.862229,82.704277 39.831105,82.5483 39.272962,82.06543 38.953756,81.789275 38.472244,81.562176 38.202933,81.560766 37.933622,81.559356 34.499838,81.258468 30.572302,80.89213 26.644765,80.525791 23.356011,80.225685 23.263959,80.225227 23.171908,80.22477 23.096593,74.651363 23.096593,67.839877 V 55.455354 l -1.531187,-2.064795 c -1.849899,-2.494581 -4.0477,-5.839129 -4.0477,-6.159671 0,-0.664495 4.329272,-6.537857 7.073854,-9.596832 l 1.072179,-1.195 2.231126,1.174063 c 1.227119,0.645734 3.080633,1.722006 4.118919,2.391717 1.204449,0.776887 1.981497,1.147966 2.146658,1.025136 0.142375,-0.105885 0.949797,-0.779893 1.794272,-1.497797 0.844474,-0.717903 2.770191,-2.123568 4.279372,-3.1237 2.251335,-1.491957 2.724628,-1.898634 2.636268,-2.265209 -0.114026,-0.473055 -0.474927,-4.492394 -0.696138,-7.752876 l -0.132323,-1.950357 1.282383,-0.567131 c 3.020446,-1.335785 8.864899,-3.271709 10.549462,-3.494418 0.648079,-0.08568 1.073061,0.570916 3.492555,5.395975 l 1.622548,3.235754 5.047473,-0.02135 5.047472,-0.02135 1.746836,-3.437557 c 2.755723,-5.422918 2.689091,-5.323708 3.476738,-5.176579 1.545966,0.288779 6.002524,1.73027 8.706481,2.816143 l 2.901021,1.165011 -0.0718,2.226267 c -0.03949,1.224446 -0.211132,3.530798 -0.381427,5.125226 -0.170294,1.594427 -0.238405,2.956897 -0.151355,3.02771 0.08705,0.07081 1.313101,0.889881 2.724559,1.82015 1.411459,0.930268 3.341064,2.354453 4.288013,3.164854 0.946949,0.810401 1.771957,1.473456 1.833354,1.473456 0.0614,0 0.943548,-0.541027 1.960341,-1.202282 1.016792,-0.661256 2.84714,-1.725036 4.067443,-2.363956 l 2.21874,-1.161674 0.96926,1.080812 c 2.80588,3.128768 7.20155,9.062091 7.20155,9.720716 0,0.249274 -2.66477,4.250235 -4.38803,6.5883 l -1.19085,1.615722 V 67.83711 c 0,6.813008 -0.0753,12.388635 -0.16737,12.390282 -0.0921,0.0016 -3.38081,0.301561 -7.308343,0.666472 -3.927536,0.36491 -7.361321,0.664822 -7.630632,0.666471 -0.269311,0.0016 -0.760181,0.23569 -1.090824,0.520098 -0.585705,0.503802 -0.606717,0.60856 -0.81689,4.072587 -0.118645,1.955516 -0.230294,3.572003 -0.248109,3.592192 -0.101727,0.115296 -12.897387,1.008317 -12.998525,0.907181 -0.06727,-0.06728 -0.31473,-1.562421 -0.549902,-3.322547 -0.618545,-4.629461 0.406368,-4.204428 -10.138441,-4.204428 -10.546426,0 -9.539283,-0.409233 -10.160133,4.128377 -0.235101,1.718297 -0.430223,3.199492 -0.433604,3.291543 -0.0087,0.238034 -1.607708,0.170759 -7.703169,-0.324106 z M 65.726594,75.199621 c 1.234921,-0.638602 1.331629,-1.13058 1.331629,-6.77426 V 63.298823 L 66.484044,62.61645 c -1.14291,-1.358272 -3.427605,-1.416553 -4.725763,-0.120551 l -0.725256,0.72405 v 5.165974 c 0,5.646824 0.09654,6.157516 1.285949,6.802884 0.798076,0.433031 2.580207,0.438685 3.40762,0.01081 z M 44.863157,74.299173 c 3.893237,-1.013793 6.544266,-4.254007 6.754287,-8.255408 0.208474,-3.971935 -1.698363,-7.207714 -5.285645,-8.969404 -1.148791,-0.564164 -1.470432,-0.616023 -3.820679,-0.616023 -2.357946,0 -2.669413,0.05064 -3.836536,0.623782 -1.969107,0.966973 -3.390909,2.384617 -4.360883,4.348129 -0.812296,1.644325 -0.840257,1.77983 -0.836751,4.055094 0.0034,2.197285 0.05186,2.453015 0.728448,3.843028 1.997574,4.103905 6.293105,6.10735 10.657759,4.970802 z m 44.064304,-0.301068 c 1.507536,-0.574061 2.950729,-1.700057 4.044205,-3.155334 1.225056,-1.630399 1.646563,-3.057897 1.644624,-5.569791 -0.0015,-1.919765 -0.0691,-2.262737 -0.716019,-3.631595 -0.887471,-1.877867 -2.608266,-3.642457 -4.414921,-4.527289 -1.247062,-0.610763 -1.515018,-0.655546 -3.905221,-0.652681 -2.312505,0.0028 -2.69325,0.06228 -3.850135,0.601708 -1.793329,0.836192 -3.592605,2.607286 -4.469789,4.399776 -0.67598,1.381343 -0.717873,1.610196 -0.717873,3.921658 0,2.29126 0.04644,2.551295 0.697526,3.905221 1.248061,2.595357 3.20809,4.264598 5.88556,5.012389 1.603228,0.447764 4.182668,0.312585 5.802043,-0.304062 z"
     id="path6" />
  <path
     style="fill:#008000;stroke-width:0.223155"
     d="m 58.020426,108.20284 c -10.5083,-0.83336 -19.490596,-3.23862 -25.602415,-6.85577 -3.849118,-2.278009 -6.316504,-4.714409 -7.887393,-7.788336 -1.079215,-2.111814 -1.426853,-3.820014 -1.430727,-7.030194 -0.0028,-2.283928 0.05183,-2.733655 0.331798,-2.733655 0.687022,0 12.506074,1.122578 12.745634,1.210585 0.155333,0.05706 0.30823,1.212928 0.405672,3.066775 0.182952,3.480713 0.413368,4.548049 1.056084,4.89202 0.259488,0.138874 4.349904,0.510444 9.167851,0.832801 l 8.699317,0.58205 0.486493,-0.56558 c 0.376396,-0.437588 0.57697,-1.193329 0.886306,-3.339505 0.219898,-1.525659 0.452028,-2.99987 0.515844,-3.276025 l 0.116032,-0.5021 h 6.535986 6.535987 l 0.234412,1.394722 c 0.128926,0.767097 0.360168,2.240947 0.513871,3.275221 0.196455,1.321965 0.424321,2.048912 0.767186,2.447516 l 0.487727,0.567016 8.672784,-0.587974 c 4.770033,-0.323385 8.85131,-0.658327 9.069507,-0.744314 0.694676,-0.27376 0.857676,-0.947073 1.109424,-4.58278 0.206265,-2.978823 0.303032,-3.555064 0.597352,-3.557204 0.193168,-0.0014 3.012342,-0.251306 6.264834,-0.555335 3.252488,-0.30403 6.089358,-0.553931 6.304138,-0.555335 0.35009,-0.0023 0.39053,0.271061 0.39053,2.639615 0,4.223113 -0.82951,6.787627 -3.1245,9.659781 -4.728906,5.918165 -14.616847,10.095365 -27.670961,11.689705 -2.879226,0.35165 -13.536219,0.62587 -16.178773,0.4163 z"
     id="path7" />
  <path
     style="fill:#ffff00;stroke-width:0.223155"
     d="M 45.030666,90.063465 C 42.672984,89.857734 40.679699,89.625134 40.601141,89.546577 40.522584,89.46802 40.330815,87.915808 40.174988,86.097216 40.019158,84.278624 39.820543,82.622707 39.73362,82.4174 39.399199,81.627525 38.195779,81.406749 30.775307,80.773929 L 23.391025,80.144197 23.243809,71.109928 C 23.16284,66.141081 23.096593,60.534637 23.096593,58.651164 v -3.424495 l -1.193618,-1.615721 c -2.05244,-2.778251 -4.162114,-6.042379 -4.162114,-6.439705 0,-0.674823 6.323712,-9.097735 7.667896,-10.213309 0.316535,-0.2627 0.583968,-0.189444 1.97292,0.540429 0.883713,0.464378 2.666062,1.480809 3.960776,2.258736 1.294714,0.777927 2.461226,1.414564 2.59225,1.41475 0.131023,1.86e-4 1.096479,-0.688269 2.145457,-1.5299 1.048979,-0.84163 2.97544,-2.257354 4.281027,-3.146054 1.305584,-0.888699 2.426414,-1.700964 2.490732,-1.805032 0.09547,-0.154474 -0.211099,-4.590209 -0.641075,-9.275677 l -0.08417,-0.917161 1.698521,-0.690053 C 46.76123,22.61516 49.23774,21.748723 51.64549,21.07195 l 2.328128,-0.654392 0.495907,0.465879 c 0.272747,0.256234 1.38412,2.213164 2.469715,4.348734 l 1.973808,3.882854 5.132576,0.0026 5.132577,0.0026 1.948091,-3.874111 c 1.071452,-2.13076 2.14057,-4.111808 2.375818,-4.402328 l 0.427725,-0.528217 2.533602,0.738965 c 2.651003,0.773207 8.85225,3.064293 9.216391,3.405048 0.132612,0.124095 0.06517,2.076164 -0.181138,5.242849 -0.215827,2.774828 -0.361112,5.070228 -0.322854,5.10089 0.03826,0.03066 1.140367,0.769676 2.449133,1.642254 1.308765,0.872578 3.260173,2.293041 4.336463,3.156584 1.07629,0.863544 2.06409,1.569927 2.195113,1.569741 0.131024,-1.86e-4 1.297538,-0.636823 2.59225,-1.41475 1.294715,-0.777927 3.093328,-1.802904 3.996915,-2.277728 l 1.6429,-0.863315 0.97981,1.106499 c 2.82985,3.195754 6.96848,8.827487 6.97729,9.494515 0.004,0.326847 -3.27769,5.315037 -4.68549,7.121291 l -0.60875,0.781044 -0.163,12.496707 c -0.0897,6.873189 -0.17775,12.509488 -0.19578,12.525106 -0.018,0.01562 -3.34663,0.30752 -7.396898,0.648671 -7.634379,0.643036 -8.684743,0.847326 -9.028907,1.756073 -0.09746,0.257334 -0.277362,1.910258 -0.399787,3.673164 -0.14363,2.068278 -0.319322,3.26507 -0.495287,3.373823 -0.324392,0.200485 -8.014397,0.754787 -10.717902,0.772555 l -1.896821,0.01247 -0.407357,-2.901022 c -0.434368,-3.093379 -0.713399,-3.7887 -1.668503,-4.157766 -0.81397,-0.314531 -16.452249,-0.31333 -17.271208,0.0013 -0.997181,0.383133 -1.289196,1.122135 -1.676616,4.243022 l -0.36323,2.926019 -2.026406,-0.02602 c -1.114523,-0.01431 -3.95542,-0.194339 -6.313102,-0.400069 z M 65.929333,75.210178 c 1.008206,-0.521362 1.12889,-1.267552 1.12889,-6.979944 v -5.2329 l -0.685451,-0.640309 c -1.202752,-1.123537 -3.145064,-1.15975 -4.55425,-0.08491 l -0.785497,0.599128 v 5.295946 c 0,5.719366 0.121837,6.510037 1.083657,7.032551 0.774374,0.420679 3.007511,0.426796 3.812651,0.01044 z m -19.78422,-1.218067 c 1.799915,-0.697482 3.739245,-2.539104 4.674599,-4.439074 0.695596,-1.41296 0.729205,-1.599723 0.729205,-4.052209 0,-2.431056 -0.03898,-2.653267 -0.716168,-4.082917 -0.828789,-1.749691 -2.315361,-3.306455 -4.09668,-4.290107 -1.178767,-0.650922 -1.295799,-0.669466 -4.224949,-0.669466 -2.928723,0 -3.046407,0.01864 -4.226874,0.669466 -1.627219,0.897135 -3.084754,2.394126 -4.03122,4.140345 -0.772527,1.425303 -0.779703,1.464214 -0.779703,4.227986 0,2.68188 0.02582,2.836074 0.669466,3.99873 0.810162,1.463431 2.310285,3.170781 3.351139,3.814064 0.420983,0.260182 1.295287,0.669368 1.942897,0.909303 1.617621,0.599313 4.860246,0.490011 6.708288,-0.226121 z m 41.930771,0.347904 c 2.400312,-0.564925 4.793436,-2.592891 5.959591,-5.050237 0.527287,-1.111111 0.582451,-1.480978 0.582451,-3.905221 0,-2.516176 -0.03862,-2.751246 -0.639606,-3.893184 -0.833287,-1.583324 -2.740662,-3.567522 -4.214318,-4.38405 -1.13097,-0.626654 -1.274937,-0.648985 -4.183873,-0.648985 -2.927843,0 -3.046874,0.01883 -4.230839,0.669466 -1.556172,0.855175 -3.282318,2.58132 -4.137492,4.137493 -0.647046,1.17744 -0.669466,1.315394 -0.669466,4.11926 0,2.754304 0.03199,2.961771 0.632451,4.102221 1.195763,2.271075 3.350182,4.141819 5.568156,4.834989 1.230269,0.384488 3.740331,0.393077 5.332945,0.01825 z"
     id="path8" />
  <path
     style="fill:#ffff00;stroke-width:0.223155"
     d="m 56.34676,107.98453 c -3.916709,-0.48415 -7.752926,-1.1146 -10.265152,-1.68697 C 34.170146,103.58369 26.25012,98.424815 23.949618,91.88141 23.471195,90.520612 23.158185,87.42338 23.284612,85.301184 l 0.07644,-1.283144 0.927758,5.28e-4 c 0.985636,5.6e-4 9.737738,0.803485 11.119643,1.020124 l 0.819355,0.12845 0.133611,1.712793 c 0.303174,3.886457 0.56486,5.488143 0.959444,5.872431 0.460342,0.448329 2.174815,0.638782 11.750379,1.305292 4.465078,0.310794 6.534022,0.377914 6.726444,0.218217 0.492315,-0.408584 0.781239,-1.40832 1.291758,-4.46973 L 57.5895,86.807484 h 6.457086 6.457089 l 0.478709,3.021224 c 0.44064,2.78096 0.889915,4.2313 1.41038,4.552966 0.197825,0.122262 14.870055,-0.843041 17.042595,-1.121252 1.723806,-0.220747 1.707619,-0.180325 2.181079,-5.446827 0.126795,-1.410407 0.30169,-2.62762 0.388659,-2.704917 0.236152,-0.209897 12.504443,-1.203825 12.680913,-1.027358 0.28455,0.284547 0.10949,5.007851 -0.24173,6.52229 -0.53459,2.305111 -1.76157,4.422684 -3.7909,6.542494 -5.010809,5.234226 -13.804996,8.816486 -25.561559,10.412366 -2.476729,0.3362 -16.832359,0.66249 -18.745061,0.42606 z"
     id="path9" />
</svg>
